<svg xmlns="http://www.w3.org/2000/svg"  viewBox="0 0 64 64" width="100px" height="100px"><path d="M 13 6 C 9.134 6 6 9.134 6 13 L 6 51 C 6 54.866 9.134 58 13 58 L 51 58 C 54.866 58 58 54.866 58 51 L 58 13 C 58 9.134 54.866 6 51 6 L 13 6 z M 13 8 L 51 8 C 53.761 8 56 10.239 56 13 L 56 51 C 56 53.761 53.761 56 51 56 L 13 56 C 10.239 56 8 53.761 8 51 L 8 13 C 8 10.239 10.239 8 13 8 z M 12 12 C 11.448 12 11 12.448 11 13 L 11 15 C 11 15.552 11.448 16 12 16 C 12.552 16 13 15.552 13 15 L 13 13 C 13 12.448 12.552 12 12 12 z M 17 12 C 16.448 12 16 12.448 16 13 L 16 15 C 16 15.552 16.448 16 17 16 C 17.552 16 18 15.552 18 15 L 18 13 C 18 12.448 17.552 12 17 12 z M 22 12 C 21.448 12 21 12.448 21 13 L 21 15 C 21 15.552 21.448 16 22 16 C 22.552 16 23 15.552 23 15 L 23 13 C 23 12.448 22.552 12 22 12 z M 27 12 C 26.448 12 26 12.448 26 13 L 26 15 C 26 15.552 26.448 16 27 16 C 27.552 16 28 15.552 28 15 L 28 13 C 28 12.448 27.552 12 27 12 z M 32 12 C 31.448 12 31 12.448 31 13 L 31 15 C 31 15.552 31.448 16 32 16 C 32.552 16 33 15.552 33 15 L 33 13 C 33 12.448 32.552 12 32 12 z M 37 12 C 36.448 12 36 12.448 36 13 L 36 15 C 36 15.552 36.448 16 37 16 C 37.552 16 38 15.552 38 15 L 38 13 C 38 12.448 37.552 12 37 12 z M 42 12 C 41.448 12 41 12.448 41 13 L 41 15 C 41 15.552 41.448 16 42 16 C 42.552 16 43 15.552 43 15 L 43 13 C 43 12.448 42.552 12 42 12 z M 47 12 C 46.448 12 46 12.448 46 13 L 46 15 C 46 15.552 46.448 16 47 16 C 47.552 16 48 15.552 48 15 L 48 13 C 48 12.448 47.552 12 47 12 z M 52 12 C 51.448 12 51 12.448 51 13 L 51 15 C 51 15.552 51.448 16 52 16 C 52.552 16 53 15.552 53 15 L 53 13 C 53 12.448 52.552 12 52 12 z M 16.03125 18.998047 L 16.03125 28.019531 C 16.03125 30.557116 18.007722 32.509766 20.529297 32.509766 C 23.058877 32.509766 24.988281 30.557116 24.988281 28.019531 L 24.988281 18.998047 L 22.355469 18.998047 L 22.355469 28.019531 C 22.355469 29.044171 21.545932 29.869141 20.529297 29.869141 C 19.520667 29.869141 18.705078 29.044171 18.705078 28.019531 L 18.705078 18.998047 L 16.03125 18.998047 z M 28.650391 19 L 28.650391 32.503906 L 31.386719 32.503906 L 31.386719 24.763672 L 34.933594 32.503906 L 37.671875 32.503906 L 37.671875 19 L 34.933594 19 L 34.933594 26.724609 L 31.386719 19 L 28.650391 19 z M 42.142578 19.001953 L 42.142578 32.507812 L 44.886719 32.507812 L 44.886719 19.001953 L 42.142578 19.001953 z M 28.650391 36.597656 L 28.650391 50.101562 L 37.671875 50.101562 L 37.671875 47.355469 L 31.386719 47.355469 L 31.386719 36.597656 L 28.650391 36.597656 z M 20.525391 36.599609 C 18.003816 36.599609 16.027344 38.617069 16.027344 41.058594 L 16.027344 45.636719 C 16.027344 48.046224 18.011821 50.095703 20.525391 50.095703 C 20.829581 50.095703 21.126075 50.063847 21.40625 50.007812 L 22.341797 52.826172 L 24.976562 52.826172 L 23.726562 48.767578 C 24.471027 47.943063 24.992187 46.805449 24.992188 45.636719 L 24.992188 41.058594 C 24.992188 38.617069 23.054971 36.599609 20.525391 36.599609 z M 43.511719 36.599609 C 40.990144 36.599609 39.044922 38.617069 39.044922 41.058594 L 39.044922 45.636719 C 39.044922 48.046224 40.982139 50.095703 43.511719 50.095703 C 46.033294 50.095703 47.970703 48.046224 47.970703 45.636719 L 47.970703 41.058594 C 47.970703 38.617069 46.033294 36.599609 43.511719 36.599609 z M 20.525391 39.240234 C 21.542026 39.240234 22.349609 40.049964 22.349609 41.058594 L 22.349609 45.636719 C 22.349609 46.525274 21.542026 47.349609 20.525391 47.349609 C 19.516761 47.349609 18.699219 46.525274 18.699219 45.636719 L 18.699219 41.058594 C 18.699219 40.049964 19.516761 39.240234 20.525391 39.240234 z M 43.503906 39.240234 C 44.504531 39.240234 45.337891 40.049964 45.337891 41.058594 L 45.337891 45.636719 C 45.337891 46.525274 44.512536 47.349609 43.503906 47.349609 C 42.495276 47.349609 41.671875 46.525274 41.671875 45.636719 L 41.671875 41.058594 C 41.671875 40.049964 42.487271 39.240234 43.503906 39.240234 z"/></svg>