<svg width="16" height="16" viewBox="0 0 16 16" fill="none" xmlns="http://www.w3.org/2000/svg">
<g id="call">
<path id="Vector 3" d="M1.78371 3.5751C2.08958 3.24771 2.53859 2.7935 2.97821 2.35572C3.75609 1.58109 5.01367 1.59656 5.78423 2.37848L6.27523 2.87671C6.85564 3.46568 6.80149 4.38054 6.34317 5.06879C5.63287 6.13543 5.95771 6.93988 7.51218 8.49436C9.06932 10.0515 9.85468 10.3556 10.9185 9.63498C11.6009 9.17277 12.513 9.12309 13.1 9.70161L13.6213 10.2154C14.4036 10.9865 14.4184 12.245 13.6432 13.0233C13.2068 13.4613 12.754 13.9092 12.4259 14.2173C9.71679 16.7605 -0.753302 6.2906 1.78371 3.5751Z" stroke="black"/>
</g>
</svg>
