<svg width="16" height="14" viewBox="0 0 16 14" fill="none" xmlns="http://www.w3.org/2000/svg">
<g id="truck">
<path id="Vector 24" d="M1.66675 11.1665L10.0001 11.1665L10.0001 2.9165C10.0001 1.95001 9.21658 1.1665 8.25008 1.1665L2.66675 1.1665" stroke="black" stroke-linecap="round"/>
<path id="Vector 28" d="M10 3.729L10 11.1665L13.6667 11.1665C14.219 11.1665 14.6667 10.7188 14.6667 10.1665L14.6667 6.43921C14.6667 6.05708 14.5572 5.68296 14.3512 5.3611L12.9617 3.18995C12.7779 2.90275 12.4604 2.729 12.1194 2.729L11 2.729C10.4477 2.729 10 3.17672 10 3.729Z" stroke="black"/>
<path id="Vector 30" d="M14.6667 5.83325H10" stroke="black"/>
<path id="Vector" d="M13.3334 11.9998C13.3334 11.5396 12.9603 11.1665 12.5001 11.1665C12.0398 11.1665 11.6667 11.5396 11.6667 11.9998C11.6667 12.4601 12.0398 12.8332 12.5001 12.8332C12.9603 12.8332 13.3334 12.4601 13.3334 11.9998Z" stroke="black"/>
<path id="Vector_2" d="M4.33341 11.9998C4.33341 11.5396 3.96032 11.1665 3.50008 11.1665C3.03984 11.1665 2.66675 11.5396 2.66675 11.9998C2.66675 12.4601 3.03984 12.8332 3.50008 12.8332C3.96032 12.8332 4.33341 12.4601 4.33341 11.9998Z" stroke="black"/>
<g id="fast">
<path id="Vector_3" d="M1.66699 3.5L6.66698 3.5" stroke="black" stroke-linecap="round"/>
<path id="Vector_4" d="M0.666748 6.1665L5.00007 6.1665" stroke="black" stroke-linecap="round"/>
<path id="Vector_5" d="M1.00024 8.83325L6.06672 8.83325" stroke="black" stroke-linecap="round"/>
</g>
</g>
</svg>
