<svg width="40" height="40" viewBox="0 0 40 40" fill="none" xmlns="http://www.w3.org/2000/svg">
<g id="box-open 1" clip-path="url(#clip0_514_129)">
<path id="Vector" d="M4.99994 5L19.9999 0L34.9999 5L20.0133 10.0017L4.99994 4.98167V5ZM3.33328 8.33333L0.499944 13.0567C-0.611723 14.91 0.278277 17.315 2.32828 17.9983L10.7966 20.8217C12.2783 21.315 13.9049 20.7133 14.7083 19.375L18.3333 13.335L3.33328 8.33333ZM21.6666 13.3333L25.2916 19.3733C26.0949 20.7133 27.7216 21.315 29.2033 20.82L37.7333 17.9767C39.7516 17.3033 40.6283 14.935 39.5333 13.11L36.6666 8.33333L21.6666 13.3333ZM17.5666 21.09C16.3299 23.15 14.1599 24.3317 11.8749 24.3317C11.1666 24.3317 10.4483 24.22 9.74161 23.9833L3.33328 21.8483V35.0017L18.3333 40.0017V19.8117L17.5666 21.0883V21.09ZM30.2583 23.9833C29.5516 24.22 28.8333 24.3317 28.1249 24.3317C25.8399 24.3317 23.6699 23.1517 22.4333 21.09L21.6666 19.8133V40.0017L36.6666 35.0017V21.8483L30.2583 23.9833Z" fill="#058C42"/>
</g>
<defs>
<clipPath id="clip0_514_129">
<rect width="40" height="40" fill="white"/>
</clipPath>
</defs>
</svg>
