<svg width="64" height="64" viewBox="0 0 64 64" fill="none" xmlns="http://www.w3.org/2000/svg">
<g id="grin-alt (1) 1" clip-path="url(#clip0_475_6667)">
<path id="Vector" d="M18.6667 25.3333C18.7707 16.56 26.5627 16.56 26.6667 25.3333C26.5627 34.1067 18.7707 34.1067 18.6667 25.3333ZM41.3334 32C46.5707 31.928 46.5707 18.7387 41.3334 18.6667C36.096 18.7387 36.096 31.928 41.3334 32ZM64 32C63.9909 40.4841 60.6165 48.6181 54.6173 54.6173C48.6181 60.6165 40.4841 63.9908 32 64C-10.4 62.4 -10.3813 1.6 32 0C40.4841 0.00917622 48.6181 3.38354 54.6173 9.38272C60.6165 15.3819 63.9909 23.5159 64 32ZM58.6667 32C58.6589 24.9299 55.8469 18.1517 50.8476 13.1524C45.8484 8.15311 39.0701 5.3411 32 5.33333C-3.32797 6.66667 -3.31997 57.3333 32 58.6667C39.0701 58.6589 45.8484 55.8469 50.8476 50.8476C55.8469 45.8483 58.6589 39.0701 58.6667 32ZM44.7707 37.3973C40.6795 38.9392 36.3683 39.8178 32 40C27.6218 39.8209 23.3005 38.9422 19.2 37.3973C18.6849 37.2864 18.1485 37.3305 17.6585 37.5241C17.1684 37.7177 16.7467 38.0522 16.4466 38.4852C16.1465 38.9183 15.9814 39.4306 15.9721 39.9574C15.9629 40.4842 16.1099 41.002 16.3947 41.4453C17.9657 44.2099 20.2325 46.5155 22.97 48.1331C25.7075 49.7507 28.8206 50.6241 32 50.6667C35.1755 50.6219 38.2839 49.7473 41.0168 48.1297C43.7497 46.512 46.0118 44.2076 47.5787 41.4453C47.8638 41.0018 48.011 40.4837 48.0017 39.9566C47.9924 39.4294 47.827 38.9168 47.5265 38.4836C47.226 38.0504 46.8038 37.716 46.3133 37.5226C45.8228 37.3293 45.286 37.2857 44.7707 37.3973Z" fill="white"/>
</g>
<defs>
<clipPath id="clip0_475_6667">
<rect width="64" height="64" fill="white"/>
</clipPath>
</defs>
</svg>
