<svg width="40" height="40" viewBox="0 0 40 40" fill="none" xmlns="http://www.w3.org/2000/svg">
<g id="lightbulb-on 1" clip-path="url(#clip0_514_303)">
<path id="Vector" d="M27.9749 4.12326L30.0332 0.773258C30.5132 -0.0134088 31.5399 -0.256742 32.3249 0.226591C33.1099 0.708258 33.3549 1.73326 32.8715 2.51826L30.8132 5.86826C30.4999 6.38159 29.9515 6.66326 29.3915 6.66326C29.0932 6.66326 28.7932 6.58326 28.5215 6.41659C27.7365 5.93492 27.4915 4.90826 27.9749 4.12326ZM9.04487 5.86659C9.35821 6.37992 9.90821 6.66326 10.4682 6.66326C10.7649 6.66326 11.0649 6.58326 11.3365 6.41826C12.1215 5.93659 12.3682 4.91159 11.8865 4.12659L9.83154 0.774925C9.34987 -0.0100754 8.32321 -0.255075 7.53987 0.224925C6.75487 0.706591 6.50821 1.73159 6.98987 2.51659L9.04487 5.86659ZM5.40154 9.54659L2.40487 8.11159C1.57821 7.70993 0.57654 8.06326 0.183207 8.89493C-0.215127 9.72493 0.13654 10.7199 0.96654 11.1166L3.96321 12.5516C4.19487 12.6633 4.43987 12.7166 4.68154 12.7166C5.30321 12.7166 5.89987 12.3683 6.18487 11.7699C6.58321 10.9399 6.23154 9.94326 5.40154 9.54659ZM19.7732 6.66826C10.5832 6.81992 3.29987 16.7799 8.28987 26.3733C9.04821 27.8299 10.1732 29.0499 11.3815 30.1616C11.8399 30.5833 12.1949 31.1049 12.4982 31.6649H18.3332V23.0249C16.3982 22.3349 14.9999 20.5016 14.9999 18.3316C14.9999 17.4099 15.7449 16.6649 16.6665 16.6649C17.5882 16.6649 18.3332 17.4099 18.3332 18.3316C18.3332 19.2533 19.0799 19.9983 19.9999 19.9983C20.9199 19.9983 21.6665 19.2516 21.6665 18.3316C21.6665 17.4116 22.4115 16.6649 23.3332 16.6649C24.2549 16.6649 24.9999 17.4099 24.9999 18.3316C24.9999 20.5016 23.6015 22.3349 21.6665 23.0249V31.6649H27.4465C27.8265 31.0133 28.3165 30.3983 28.9582 29.8633C30.0565 28.9466 31.0899 27.9249 31.7249 26.6433C34.6199 20.7883 33.4715 14.5449 29.3482 10.4916C26.7799 7.96493 23.3782 6.61326 19.7732 6.66826ZM13.3199 35.4633C13.1865 37.9066 15.0165 39.9999 17.4632 39.9999H22.4982C24.7999 39.9999 26.6649 38.1349 26.6649 35.8333V34.9999H13.3015C13.3015 35.1566 13.3299 35.3033 13.3199 35.4633ZM39.8549 8.83326C39.4749 7.99493 38.4899 7.61659 37.6515 7.99993L34.4315 9.45326C33.5915 9.83159 33.2182 10.8183 33.5982 11.6566C33.8765 12.2733 34.4815 12.6383 35.1182 12.6383C35.3465 12.6383 35.5799 12.5916 35.8015 12.4899L39.0215 11.0366C39.8615 10.6583 40.2349 9.67159 39.8549 8.83326Z" fill="#058C42"/>
</g>
<defs>
<clipPath id="clip0_514_303">
<rect width="40" height="40" fill="white"/>
</clipPath>
</defs>
</svg>
