<svg width="64" height="64" viewBox="0 0 64 64" fill="none" xmlns="http://www.w3.org/2000/svg">
<g id="marker (1) 1" clip-path="url(#clip0_475_6673)">
<path id="Vector" d="M31.9999 16C29.8903 16 27.828 16.6256 26.0738 17.7977C24.3197 18.9697 22.9525 20.6356 22.1452 22.5847C21.3379 24.5338 21.1266 26.6785 21.5382 28.7476C21.9498 30.8168 22.9657 32.7174 24.4575 34.2091C25.9492 35.7009 27.8498 36.7168 29.919 37.1284C31.9881 37.54 34.1328 37.3287 36.0819 36.5214C38.031 35.714 39.6969 34.3469 40.8689 32.5927C42.041 30.8386 42.6666 28.7763 42.6666 26.6667C42.6666 23.8377 41.5428 21.1246 39.5424 19.1242C37.542 17.1238 34.8289 16 31.9999 16ZM31.9999 32C30.9451 32 29.9139 31.6872 29.0369 31.1012C28.1598 30.5151 27.4762 29.6822 27.0726 28.7076C26.6689 27.7331 26.5633 26.6608 26.7691 25.6262C26.9749 24.5916 27.4828 23.6413 28.2287 22.8954C28.9746 22.1496 29.9249 21.6416 30.9594 21.4358C31.994 21.23 33.0664 21.3356 34.0409 21.7393C35.0154 22.143 35.8484 22.8266 36.4344 23.7036C37.0205 24.5807 37.3333 25.6118 37.3333 26.6667C37.3333 28.0812 36.7714 29.4377 35.7712 30.4379C34.771 31.4381 33.4144 32 31.9999 32Z" fill="white"/>
<path id="Vector_2" d="M32.0001 64C29.7546 64.0115 27.5391 63.4848 25.5389 62.4641C23.5388 61.4434 21.8124 59.9583 20.5041 58.1333C10.3414 44.1146 5.18677 33.576 5.18677 26.808C5.18677 19.6966 8.01174 12.8765 13.0402 7.84807C18.0687 2.8196 24.8888 -0.00537109 32.0001 -0.00537109C39.1114 -0.00537109 45.9315 2.8196 50.96 7.84807C55.9885 12.8765 58.8134 19.6966 58.8134 26.808C58.8134 33.576 53.6588 44.1146 43.4961 58.1333C42.1879 59.9583 40.4614 61.4434 38.4613 62.4641C36.4611 63.4848 34.2456 64.0115 32.0001 64ZM32.0001 5.81596C26.4332 5.82232 21.0961 8.03657 17.1598 11.973C13.2234 15.9093 11.0091 21.2464 11.0028 26.8133C11.0028 32.1733 16.0508 42.0853 25.2134 54.7226C25.9913 55.794 27.0118 56.6661 28.1913 57.2673C29.3709 57.8686 30.6761 58.1821 32.0001 58.1821C33.3241 58.1821 34.6293 57.8686 35.8089 57.2673C36.9885 56.6661 38.0089 55.794 38.7868 54.7226C47.9494 42.0853 52.9974 32.1733 52.9974 26.8133C52.9911 21.2464 50.7768 15.9093 46.8404 11.973C42.9041 8.03657 37.567 5.82232 32.0001 5.81596Z" fill="white"/>
</g>
<defs>
<clipPath id="clip0_475_6673">
<rect width="64" height="64" fill="white"/>
</clipPath>
</defs>
</svg>
