<svg width="40" height="40" viewBox="0 0 40 40" fill="none" xmlns="http://www.w3.org/2000/svg">
<g id="plane-alt 1" clip-path="url(#clip0_514_333)">
<path id="Vector" d="M18.0199 40H13.3333L18.3966 25H9.99992L8.19159 27.755C7.73681 28.4457 7.11746 29.0124 6.38926 29.4043C5.66107 29.7962 4.84687 30.0009 4.01992 30H0.0715885L3.73826 20L0.0449219 10H3.99992C4.82547 9.99891 5.63837 10.2029 6.36562 10.5935C7.09288 10.9842 7.71172 11.5494 8.16659 12.2383L9.99992 15H18.4016L13.3333 8.56728e-08H18.0199C18.9182 -0.000166174 19.7999 0.241658 20.5724 0.700055C21.3449 1.15845 21.9797 1.81649 22.4099 2.605L29.3133 15H34.8216C36.027 14.9849 37.1993 15.3939 38.1337 16.1555C39.0681 16.9171 39.7051 17.983 39.9333 19.1667C40.0545 19.8839 40.0178 20.6189 39.8257 21.3205C39.6335 22.0221 39.2907 22.6733 38.8209 23.2287C38.3512 23.7841 37.766 24.2304 37.106 24.5363C36.4461 24.8422 35.7273 25.0005 34.9999 25H29.3133L22.4033 37.4067C21.972 38.192 21.3376 38.847 20.5665 39.3033C19.7954 39.7595 18.9159 40.0001 18.0199 40Z" fill="#058C42"/>
</g>
<defs>
<clipPath id="clip0_514_333">
<rect width="40" height="40" fill="white"/>
</clipPath>
</defs>
</svg>
