<svg width="40" height="40" viewBox="0 0 40 40" fill="none" xmlns="http://www.w3.org/2000/svg">
<g id="ship 1" clip-path="url(#clip0_514_272)">
<path id="Vector" d="M20 13.0633L6.66667 17.5083V13.3333C6.66667 12.0073 7.19345 10.7355 8.13113 9.7978C9.06881 8.86012 10.3406 8.33333 11.6667 8.33333H28.3333C29.6594 8.33333 30.9312 8.86012 31.8689 9.7978C32.8065 10.7355 33.3333 12.0073 33.3333 13.3333V17.5083L20 13.0633ZM36.6667 35C36.6667 35.5733 35.53 36.6667 33.75 36.6667C33.2417 36.686 32.7354 36.5913 32.2685 36.3894C31.8016 36.1875 31.3858 35.8836 31.0517 35.5C32.8263 33.7734 34.2374 31.709 35.2018 29.4286C36.1661 27.1481 36.6642 24.6977 36.6667 22.2217V22.1317L21.6667 17.1317V35H18.3333V17.1333L3.33333 22.1333V22.2233C3.33733 24.6998 3.8371 27.1503 4.80317 29.4305C5.76924 31.7107 7.18206 33.7744 8.95833 35.5C8.62298 35.8847 8.20554 36.1893 7.7368 36.3912C7.26806 36.5932 6.75997 36.6873 6.25 36.6667C4.435 36.6667 3.33333 35.51 3.33333 35H0C0 37.71 2.86333 40 6.25 40C7.92832 40.0127 9.55519 39.4211 10.8333 38.3333C12.1197 39.4036 13.7391 39.9915 15.4125 39.9957C17.0858 40 18.7082 39.4203 20 38.3567C21.2918 39.4203 22.9142 40 24.5875 39.9957C26.2609 39.9915 27.8803 39.4036 29.1667 38.3333C30.4444 39.4207 32.0706 40.0123 33.7483 40C37.1367 40 40 37.71 40 35H36.6667ZM26.6667 3.33333C26.6667 2.44928 26.3155 1.60143 25.6904 0.976311C25.0652 0.35119 24.2174 0 23.3333 0L16.6667 0C15.7826 0 14.9348 0.35119 14.3096 0.976311C13.6845 1.60143 13.3333 2.44928 13.3333 3.33333V5H26.6667V3.33333Z" fill="#058C42"/>
</g>
<defs>
<clipPath id="clip0_514_272">
<rect width="40" height="40" fill="white"/>
</clipPath>
</defs>
</svg>
