<svg width="40" height="40" viewBox="0 0 40 40" fill="none" xmlns="http://www.w3.org/2000/svg">
<g id="truck-moving (1) 1" clip-path="url(#clip0_514_210)">
<path id="Vector" d="M40 21.9151C40.0001 20.93 39.8414 19.9513 39.53 19.0167L37.2983 12.3217C36.9111 11.1604 36.1684 10.1504 35.1753 9.43456C34.1823 8.71876 32.9892 8.33353 31.765 8.33342H28.3333V7.50008C28.3333 5.95299 27.7188 4.46925 26.6248 3.37529C25.5308 2.28133 24.0471 1.66675 22.5 1.66675H5.83333C4.28624 1.66675 2.80251 2.28133 1.70854 3.37529C0.614581 4.46925 0 5.95299 0 7.50008L0 34.1667C0.000585048 34.7489 0.123147 35.3244 0.359786 35.8563C0.596425 36.3882 0.941889 36.8646 1.37391 37.2547C1.80593 37.6449 2.31491 37.9403 2.86805 38.1217C3.4212 38.3031 4.00622 38.3666 4.58541 38.3081C5.1646 38.2496 5.7251 38.0704 6.23079 37.782C6.73647 37.4936 7.17612 37.1025 7.52138 36.6338C7.86665 36.1651 8.10986 35.6292 8.23536 35.0608C8.36086 34.4924 8.36584 33.9039 8.25 33.3334H10.0833C9.96045 33.9386 9.97361 34.5635 10.1219 35.1629C10.2701 35.7623 10.5497 36.3213 10.9405 36.7995C11.3313 37.2776 11.8235 37.6628 12.3814 37.9274C12.9394 38.192 13.5492 38.3292 14.1667 38.3292C14.7842 38.3292 15.3939 38.192 15.9519 37.9274C16.5098 37.6628 17.002 37.2776 17.3928 36.7995C17.7836 36.3213 18.0632 35.7623 18.2115 35.1629C18.3597 34.5635 18.3729 33.9386 18.25 33.3334H28.4167C28.2938 33.9386 28.3069 34.5635 28.4552 35.1629C28.6034 35.7623 28.8831 36.3213 29.2739 36.7995C29.6646 37.2776 30.1568 37.6628 30.7148 37.9274C31.2727 38.192 31.8825 38.3292 32.5 38.3292C33.1175 38.3292 33.7273 38.192 34.2852 37.9274C34.8432 37.6628 35.3354 37.2776 35.7261 36.7995C36.1169 36.3213 36.3966 35.7623 36.5448 35.1629C36.6931 34.5635 36.7062 33.9386 36.5833 33.3334H40V21.9151ZM23.3333 28.3334H5V7.50008C5 7.27907 5.0878 7.06711 5.24408 6.91083C5.40036 6.75455 5.61232 6.66675 5.83333 6.66675H22.5C22.721 6.66675 22.933 6.75455 23.0893 6.91083C23.2455 7.06711 23.3333 7.27907 23.3333 7.50008V28.3334ZM31.765 13.3334C31.9398 13.3335 32.1102 13.3887 32.252 13.491C32.3937 13.5933 32.4998 13.7375 32.555 13.9034L34.7867 20.5967C34.9041 20.9426 34.9758 21.3023 35 21.6667H28.3333V13.3334H31.765Z" fill="#058C42"/>
</g>
<defs>
<clipPath id="clip0_514_210">
<rect width="40" height="40" fill="white"/>
</clipPath>
</defs>
</svg>
