<svg width="64" height="64" viewBox="0 0 64 64" fill="none" xmlns="http://www.w3.org/2000/svg">
<g id="truck-moving (3) 1" clip-path="url(#clip0_475_6669)">
<path id="Vector" d="M63.0427 28.6933L60.352 20.6266C59.6462 18.5018 58.2888 16.6534 56.4725 15.3442C54.6563 14.0349 52.4736 13.3313 50.2347 13.3333H45.0667C44.4477 10.3237 42.8102 7.61955 40.43 5.67654C38.0498 3.73353 35.0725 2.6705 32 2.66663H13.3333C9.79841 2.67086 6.40949 4.07698 3.90992 6.57655C1.41035 9.07611 0.00423429 12.465 0 16L0 52C0.0228137 53.8437 0.588604 55.6398 1.62664 57.1637C2.66467 58.6877 4.12889 59.8718 5.83624 60.5681C7.54358 61.2645 9.41831 61.442 11.226 61.0787C13.0338 60.7154 14.6943 59.8272 16 58.5253C17.3057 59.8272 18.9662 60.7154 20.774 61.0787C22.5817 61.442 24.4564 61.2645 26.1638 60.5681C27.8711 59.8718 29.3353 58.6877 30.3734 57.1637C31.4114 55.6398 31.9772 53.8437 32 52V50.6666H40V52C40 54.4753 40.9833 56.8493 42.7337 58.5996C44.484 60.35 46.858 61.3333 49.3333 61.3333C51.8087 61.3333 54.1827 60.35 55.933 58.5996C57.6833 56.8493 58.6667 54.4753 58.6667 52V49.2346C60.2878 48.2987 61.634 46.9526 62.5702 45.3316C63.5064 43.7107 63.9995 41.8719 64 40V34.5973C64.0003 32.5906 63.677 30.597 63.0427 28.6933ZM55.2933 22.3146L57.632 29.3333H45.3333V18.6666H50.2347C51.354 18.6669 52.4449 19.0194 53.3528 19.6741C54.2607 20.3288 54.9396 21.2526 55.2933 22.3146ZM5.33333 16C5.33333 13.8782 6.17619 11.8434 7.67648 10.3431C9.17677 8.84281 11.2116 7.99996 13.3333 7.99996H32C34.1217 7.99996 36.1566 8.84281 37.6569 10.3431C39.1571 11.8434 40 13.8782 40 16V45.3333H5.33333V16ZM9.33333 56C8.27247 56 7.25505 55.5785 6.50491 54.8284C5.75476 54.0782 5.33333 53.0608 5.33333 52V50.6666H13.3333V52C13.3333 53.0608 12.9119 54.0782 12.1618 54.8284C11.4116 55.5785 10.3942 56 9.33333 56ZM26.6667 52C26.6667 53.0608 26.2452 54.0782 25.4951 54.8284C24.7449 55.5785 23.7275 56 22.6667 56C21.6058 56 20.5884 55.5785 19.8382 54.8284C19.0881 54.0782 18.6667 53.0608 18.6667 52V50.6666H26.6667V52ZM53.3333 52C53.3333 53.0608 52.9119 54.0782 52.1618 54.8284C51.4116 55.5785 50.3942 56 49.3333 56C48.2725 56 47.2551 55.5785 46.5049 54.8284C45.7548 54.0782 45.3333 53.0608 45.3333 52V50.6666H53.3333V52ZM53.3333 45.3333H45.3333V34.6666H58.6667V40C58.6667 41.4144 58.1048 42.771 57.1046 43.7712C56.1044 44.7714 54.7478 45.3333 53.3333 45.3333Z" fill="white"/>
</g>
<defs>
<clipPath id="clip0_475_6669">
<rect width="64" height="64" fill="white"/>
</clipPath>
</defs>
</svg>
