<svg width="134" height="19" viewBox="0 0 134 19" fill="none" xmlns="http://www.w3.org/2000/svg">
<path id="Vector 4" d="M134 3L128.881 0.330344L129.128 6.09853L134 3ZM0 18.5C1.06335 18.5 2.07753 18.4681 3.04699 18.4072L2.98425 17.4092C2.0366 17.4687 1.04336 17.5 0 17.5V18.5ZM9.05827 17.5648C11.2188 17.073 13.1143 16.4124 14.8374 15.6439L14.4301 14.7306C12.7631 15.4741 10.9295 16.1133 8.83634 16.5897L9.05827 17.5648ZM20.1564 12.7114C21.8447 11.6255 23.5066 10.4437 25.1461 9.36621L24.5968 8.53055C22.8859 9.65508 21.3282 10.7687 19.6154 11.8703L20.1564 12.7114ZM30.2889 6.41903C31.9497 5.6388 33.7694 4.96552 35.8499 4.4628L35.6151 3.49078C33.4638 4.0106 31.5804 4.70742 29.8637 5.51394L30.2889 6.41903ZM41.6849 3.59607C42.6304 3.53311 43.6227 3.5 44.6667 3.5V2.5C43.6016 2.5 42.5871 2.53378 41.6185 2.59828L41.6849 3.59607ZM44.6667 3.5C45.7097 3.5 46.7018 3.53305 47.6477 3.5959L47.714 2.5981C46.745 2.53372 45.7309 2.5 44.6667 2.5V3.5ZM53.4833 4.45881C55.5614 4.95775 57.384 5.62546 59.0491 6.39943L59.4706 5.4926C57.7501 4.69289 55.8647 4.00215 53.7167 3.48644L53.4833 4.45881ZM64.2051 9.32251C65.0417 9.86716 65.8616 10.4239 66.6886 10.9837C67.5142 11.5426 68.3463 12.1042 69.2001 12.6533L69.7411 11.8122C68.8983 11.2702 68.0752 10.7148 67.2492 10.1556C66.4246 9.59741 65.5964 9.03506 64.7507 8.48446L64.2051 9.32251ZM74.5102 15.598C76.2341 16.376 78.1262 17.046 80.2794 17.5456L80.5054 16.5715C78.4201 16.0876 76.59 15.4394 74.9216 14.6865L74.5102 15.598ZM86.2867 18.4051C87.2561 18.4674 88.2701 18.5 89.3333 18.5V17.5C88.2906 17.5 87.298 17.468 86.3509 17.4071L86.2867 18.4051ZM89.3333 18.5C90.3863 18.5 91.3975 18.468 92.3704 18.4069L92.3077 17.4089C91.3563 17.4686 90.366 17.5 89.3333 17.5V18.5ZM98.3685 17.5904C100.489 17.1314 102.402 16.521 104.167 15.8106L103.794 14.8828C102.077 15.5735 100.219 16.1668 98.1569 16.613L98.3685 17.5904ZM109.597 13.1414C111.381 12.1187 113.058 11.0357 114.714 9.98887L114.179 9.1437C112.513 10.1975 110.86 11.2649 109.1 12.2738L109.597 13.1414ZM119.836 6.97168C121.53 6.09136 123.311 5.31833 125.275 4.72649L124.986 3.76904C122.951 4.38248 121.112 5.18183 119.375 6.08432L119.836 6.97168Z" fill="white"/>
</svg>
