<svg width="40" height="40" viewBox="0 0 40 40" fill="none" xmlns="http://www.w3.org/2000/svg">
<g id="warehouse-alt 1" clip-path="url(#clip0_514_257)">
<path id="Vector" d="M40 16.205V35.8334C40 38.135 38.135 40 35.8333 40C33.5317 40 31.6667 38.135 31.6667 35.8334V20C31.6667 19.08 30.92 18.3334 30 18.3334H10C9.08 18.3334 8.33333 19.08 8.33333 20V35.8334C8.33333 38.135 6.46833 40 4.16667 40C1.865 40 0 38.135 0 35.8334V16.205C0 13.435 1.37667 10.8467 3.67167 9.29836L15.3383 1.42503C18.155 -0.476637 21.845 -0.476637 24.6617 1.42503L36.3283 9.29836C38.6233 10.8484 40 13.4367 40 16.205ZM16.6667 33.3334H15C14.0783 33.3334 13.3333 34.08 13.3333 35V38.3334C13.3333 39.2534 14.0783 40 15 40H16.6667C17.5883 40 18.3333 39.2534 18.3333 38.3334V35C18.3333 34.08 17.5883 33.3334 16.6667 33.3334ZM16.6667 23.3334H15C14.0783 23.3334 13.3333 24.08 13.3333 25V28.3334C13.3333 29.2534 14.0783 30 15 30H16.6667C17.5883 30 18.3333 29.2534 18.3333 28.3334V25C18.3333 24.08 17.5883 23.3334 16.6667 23.3334ZM25 33.3334H23.3333C22.4117 33.3334 21.6667 34.08 21.6667 35V38.3334C21.6667 39.2534 22.4117 40 23.3333 40H25C25.9217 40 26.6667 39.2534 26.6667 38.3334V35C26.6667 34.08 25.9217 33.3334 25 33.3334Z" fill="#058C42"/>
</g>
<defs>
<clipPath id="clip0_514_257">
<rect width="40" height="40" fill="white"/>
</clipPath>
</defs>
</svg>
