<svg xmlns="http://www.w3.org/2000/svg" id="Layer_6" data-name="Layer 6" viewBox="0 0 1024 1024">
    <defs>
        <style>.cls-1 {
            fill: #f7f7f7;
        }

        .cls-2 {
            fill: #e91e25;
        }

        .cls-3 {
            fill: #114a9f;
        }

        .cls-4 {
            fill: #f8f8f9;
        }</style>
    </defs>
    <title>en</title>
    <circle class="cls-1" cx="512" cy="512" r="350"/>
    <path class="cls-2"
          d="M162,512q0,13.2,1,26.17H861q1-13,1-26.17a352.08,352.08,0,0,0-6.44-67.16H168.44A352.08,352.08,0,0,0,162,512Z"/>
    <path class="cls-2"
          d="M235.94,727.17H788.06a349.48,349.48,0,0,0,52.14-93.33H183.8A349.48,349.48,0,0,0,235.94,727.17Z"/>
    <path class="cls-2"
          d="M821,347.52h0q-7-13.15-15.11-25.62l0,0q-8.05-12.45-17.14-24.15l0,0q-9.06-11.69-19.08-22.57l0,0q-10-10.89-20.91-20.9H275.29q-10.89,10-20.92,20.9h0q-10,10.88-19.08,22.58l0,0q-9.06,11.68-17.14,24.14l0,0Q210,334.35,203,347.52H821Z"/>
    <path class="cls-2" d="M512,862a348.32,348.32,0,0,0,167.92-42.85H344.08A348.32,348.32,0,0,0,512,862Z"/>
    <path class="cls-3" d="M162,512q0,13.2,1,26.17H512V162C318.7,162,162,318.7,162,512Z"/>
    <polygon class="cls-4"
             points="460.09 180.21 472.19 204.76 499.15 208.56 479.44 227.57 484.28 254.19 460.09 241.75 436.24 254.19 440.73 227.57 421.37 208.56 448.33 204.76 460.09 180.21"/>
    <polygon class="cls-4"
             points="460.09 437.12 472.19 461.66 499.15 465.47 479.44 484.48 484.28 511.1 460.09 498.65 436.24 511.1 440.73 484.48 421.37 465.47 448.33 461.66 460.09 437.12"/>
    <polygon class="cls-4"
             points="460.09 312.1 472.19 336.64 499.15 340.44 479.44 359.45 484.28 386.07 460.09 373.63 436.24 386.07 440.73 359.45 421.37 340.44 448.33 336.64 460.09 312.1"/>
    <polygon class="cls-4"
             points="257.59 437.12 269.69 461.66 296.65 465.47 276.94 484.48 281.78 511.1 257.59 498.65 233.74 511.1 238.23 484.48 218.87 465.47 245.83 461.66 257.59 437.12"/>
    <polygon class="cls-4"
             points="257.59 312.1 269.69 336.64 296.65 340.44 276.94 359.45 281.78 386.07 257.59 373.63 233.74 386.07 238.23 359.45 218.87 340.44 245.83 336.64 257.59 312.1"/>
    <polygon class="cls-4"
             points="357.81 248.28 369.91 272.82 396.88 276.63 377.17 295.64 382.01 322.25 357.81 309.81 333.96 322.25 338.46 295.64 319.1 276.63 346.06 272.82 357.81 248.28"/>
    <polygon class="cls-4"
             points="357.81 373.46 369.91 398 396.88 401.81 377.17 420.82 382.01 447.44 357.81 434.99 333.96 447.44 338.46 420.82 319.1 401.81 346.06 398 357.81 373.46"/>
</svg>
