<svg width="20" height="22" viewBox="0 0 20 22" fill="none" xmlns="http://www.w3.org/2000/svg">
<g id="box">
<path id="Vector 14" d="M1 6L10 10M10 10L19 6M10 10V20.5" stroke="#3A3A3A"/>
<path id="Vector 1" d="M1 15.5729V5.64987C1 5.25468 1.23273 4.89656 1.59386 4.73606L9.18772 1.36101C9.70485 1.13118 10.2951 1.13118 10.8123 1.36101L18.4061 4.73606C18.7673 4.89656 19 5.25468 19 5.64987V15.5729C19 16.1411 18.679 16.6605 18.1708 16.9146L10.4472 20.7764C10.1657 20.9172 9.83431 20.9172 9.55279 20.7764L1.82918 16.9146C1.321 16.6605 1 16.1411 1 15.5729Z" stroke="#3A3A3A"/>
</g>
</svg>
