<svg xmlns="http://www.w3.org/2000/svg"  viewBox="0 0 64 64" width="64px" height="64px"><title>5 lightbulb</title><path d="M39.476,59.848H24.524a1,1,0,0,1,0-2H39.476a1,1,0,0,1,0,2Z" style="fill:#495670"/><path d="M39.476,64H24.524a1,1,0,0,1,0-2H39.476a1,1,0,0,1,0,2Z" style="fill:#495670"/><path d="M49.53,30.66A17.616,17.616,0,0,1,39.48,46.64v8.3H24.52l-.01-8.3A17.628,17.628,0,1,1,49.53,30.66Z" style="fill:#f9b534"/><path d="M49.53,30.66A17.6,17.6,0,0,0,33.868,13.106a17.729,17.729,0,0,0-5.72,33.534l.01,8.3H39.48v-8.3A17.616,17.616,0,0,0,49.53,30.66Z" style="fill:#f9cb4e"/><path d="M31.64,36.28V54.94h-2V36.65l-4.56-5.27a1,1,0,0,1,1.52-1.31l4.8,5.56A.969.969,0,0,1,31.64,36.28Z" style="fill:#eaeae8"/><path d="M39.48,31.38l-4.56,5.27V54.94h-2V36.28a1.021,1.021,0,0,1,.24-.65l4.8-5.56a1,1,0,0,1,1.52,1.31Z" style="fill:#eaeae8"/><path d="M6.921,16.151,12.152,19.2a1,1,0,1,0,1.008-1.727l-5.231-3.05a1,1,0,0,0-1.008,1.728Z" style="fill:#f4991e"/><path d="M51.538,19.337a1,1,0,0,0,.5-.136l5.233-3.05a1,1,0,1,0-1.007-1.728l-5.234,3.051a1,1,0,0,0,.5,1.863Z" style="fill:#f4991e"/><path d="M32.1,0a1,1,0,0,0-1,1V7.007a1,1,0,0,0,2,0V1A1,1,0,0,0,32.1,0Z" style="fill:#f4991e"/><path d="M57.14,43.108l-5.1-2.972a1,1,0,0,0-1.008,1.728l5.1,2.971a1,1,0,1,0,1.008-1.727Z" style="fill:#f4991e"/><path d="M18.755,4.291a1,1,0,1,0-1.736.992L20,10.5A1,1,0,1,0,21.731,9.5Z" style="fill:#f4991e"/><path d="M60.409,28.686l-5.864,0h0a1,1,0,0,0,0,2l5.864,0h0a1,1,0,0,0,0-2Z" style="fill:#f4991e"/><path d="M46.784,4.02a1,1,0,0,0-1.365.37L42.464,9.552a1,1,0,0,0,1.736.994l2.955-5.162A1,1,0,0,0,46.784,4.02Z" style="fill:#f4991e"/><path d="M12.153,40.136l-5.1,2.972a1,1,0,0,0,.5,1.864.989.989,0,0,0,.5-.137l5.1-2.971a1,1,0,0,0-1.008-1.728Z" style="fill:#f4991e"/><path d="M10.651,29.681a1,1,0,0,0-1-1h0l-6.059,0a1,1,0,0,0,0,2h0l6.059,0A1,1,0,0,0,10.651,29.681Z" style="fill:#f4991e"/></svg>