<svg width="22" height="22" viewBox="0 0 22 22" fill="none" xmlns="http://www.w3.org/2000/svg">
<g id="layout-square">
<path id="Vector 1" d="M1.5 7.91667V3C1.5 2.17157 2.17157 1.5 3 1.5H7.91667C8.74509 1.5 9.41667 2.17157 9.41667 3V7.91667C9.41667 8.74509 8.74509 9.41667 7.91667 9.41667H3C2.17157 9.41667 1.5 8.74509 1.5 7.91667Z" stroke="#058C42" stroke-width="2"/>
<path id="Vector 3" d="M1.5 19.0002V14.0835C1.5 13.2551 2.17157 12.5835 3 12.5835H7.91667C8.74509 12.5835 9.41667 13.2551 9.41667 14.0835V19.0002C9.41667 19.8286 8.74509 20.5002 7.91667 20.5002H3C2.17157 20.5002 1.5 19.8286 1.5 19.0002Z" stroke="#058C42" stroke-width="2"/>
<path id="Vector 2" d="M12.5833 7.91667V3C12.5833 2.17157 13.2548 1.5 14.0833 1.5H18.9999C19.8283 1.5 20.4999 2.17157 20.4999 3V7.91667C20.4999 8.74509 19.8283 9.41667 18.9999 9.41667H14.0833C13.2548 9.41667 12.5833 8.74509 12.5833 7.91667Z" stroke="#058C42" stroke-width="2"/>
<path id="Vector 4" d="M12.5833 19.0002V14.0835C12.5833 13.2551 13.2548 12.5835 14.0833 12.5835H18.9999C19.8283 12.5835 20.4999 13.2551 20.4999 14.0835V19.0002C20.4999 19.8286 19.8283 20.5002 18.9999 20.5002H14.0833C13.2548 20.5002 12.5833 19.8286 12.5833 19.0002Z" stroke="#058C42" stroke-width="2"/>
</g>
</svg>
