<svg width="18" height="22" viewBox="0 0 18 22" fill="none" xmlns="http://www.w3.org/2000/svg">
<g id="location">
<path id="Vector" d="M9.01131 0.625C13.1033 0.625 16.9045 3.90179 16.9045 8.03571C16.9045 10.7682 15.9813 12.7001 14.4343 14.9524C12.7072 17.4667 10.502 19.8338 9.51626 20.8515C9.23187 21.1451 8.7676 21.1451 8.48321 20.8515C7.49745 19.8338 5.29227 17.4667 3.56521 14.9524C2.01812 12.7001 1.09497 10.7682 1.09497 8.03571C1.09497 3.90179 4.89612 0.625 8.98807 0.625" stroke="#3A3A3A" stroke-linecap="round"/>
<path id="Vector_2" d="M11.964 8.47223C11.964 10.1255 10.6411 11.4927 9.00435 11.4927C7.36758 11.4927 6.0354 10.1255 6.0354 8.47223C6.0354 6.819 7.36758 5.5653 9.00435 5.5653C10.6411 5.5653 11.964 6.819 11.964 8.47223Z" stroke="#3A3A3A"/>
</g>
</svg>
