<svg width="20" height="22" viewBox="0 0 20 22" fill="none" xmlns="http://www.w3.org/2000/svg">
<g id="setting">
<path id="Vector" d="M12.7462 10.9472C12.7462 12.4812 11.5188 13.7499 10 13.7499C8.48124 13.7499 7.24512 12.4812 7.24512 10.9472C7.24512 9.41318 8.48124 8.24988 10 8.24988C11.5188 8.24988 12.7462 9.41318 12.7462 10.9472Z" stroke="#3A3A3A"/>
<path id="Vector_2" d="M12.2127 3.04115L11.5749 1.5962C11.4149 1.23381 11.0562 1 10.66 1H9.31512C8.91901 1 8.56023 1.23381 8.40028 1.5962L7.7625 3.04115C7.14903 4.43103 5.70895 5.26643 4.19788 5.10901L2.39332 4.92102C2.00234 4.88029 1.62377 5.07239 1.42579 5.41199L0.832832 6.42909C0.63099 6.77531 0.655341 7.2086 0.894706 7.53002L1.92975 8.91989C2.84991 10.1555 2.85394 11.8475 1.93967 13.0875L0.89016 14.5108C0.65335 14.832 0.630148 15.2632 0.831127 15.608L1.42295 16.6231C1.62238 16.9652 2.00486 17.1573 2.39835 17.1132L4.17891 16.9134C5.69885 16.7429 7.15349 17.5791 7.77109 18.9783L8.40028 20.4038C8.56023 20.7662 8.91901 21 9.31512 21H10.66C11.0562 21 11.4149 20.7662 11.5749 20.4038L12.2041 18.9783C12.8217 17.5791 14.2763 16.7429 15.7963 16.9134L17.5829 17.1139C17.9733 17.1577 18.3531 16.9688 18.5539 16.6312L19.1632 15.6064C19.3676 15.2627 19.3476 14.8304 19.1124 14.5071L18.0664 13.069C17.1701 11.8368 17.174 10.1661 18.0762 8.93811L19.1079 7.53379C19.3456 7.2102 19.3667 6.77581 19.1615 6.43068L18.5511 5.40395C18.3518 5.06875 17.9758 4.87998 17.5879 4.92039L15.7773 5.10901C14.2662 5.26643 12.8261 4.43103 12.2127 3.04115Z" stroke="#3A3A3A" stroke-miterlimit="10"/>
</g>
</svg>
