<svg width="28" height="28" viewBox="0 0 28 28" fill="none" xmlns="http://www.w3.org/2000/svg">
<g id="call">
<path id="Vector 3" d="M3.1213 6.2563C3.91101 5.41103 5.24595 4.0827 6.26893 3.07631C7.05152 2.30643 8.30789 2.32114 9.07845 3.10305L11.7691 5.83332C12.3495 6.42228 12.3326 7.36055 11.7891 7.9838C9.73447 10.3403 10.0135 11.7324 13.1461 14.865C16.2811 18 17.6285 18.2327 19.9869 16.1715C20.6075 15.6291 21.5423 15.6152 22.1293 16.1937L24.8971 18.9216C25.6795 19.6927 25.6936 20.95 24.9228 21.7327C23.9184 22.7526 22.5935 24.0836 21.7451 24.8801C17.0042 29.3308 -1.31846 11.0084 3.1213 6.2563Z" stroke="#058C42" stroke-width="1.5"/>
</g>
</svg>
