<svg width="20" height="26" viewBox="0 0 20 26" fill="none" xmlns="http://www.w3.org/2000/svg">
<g id="location">
<path id="Vector" d="M10.0131 0.895752C14.787 0.895752 19.2218 4.71868 19.2218 9.54159C19.2218 12.7295 18.1448 14.9833 16.3398 17.611C14.2727 20.6204 11.6185 23.4491 10.5157 24.5825C10.2306 24.8754 9.76853 24.8754 9.48347 24.5825C8.38062 23.4491 5.72641 20.6204 3.65929 17.611C1.85435 14.9833 0.777344 12.7295 0.777344 9.54159C0.777344 4.71868 5.21202 0.895752 9.98595 0.895752" stroke="#058C42" stroke-width="1.5" stroke-linecap="round"/>
<path id="Vector_2" d="M13.4577 10.0509C13.4577 11.9797 11.9144 13.5748 10.0048 13.5748C8.09522 13.5748 6.54102 11.9797 6.54102 10.0509C6.54102 8.12217 8.09522 6.65951 10.0048 6.65951C11.9144 6.65951 13.4577 8.12217 13.4577 10.0509Z" stroke="#058C42" stroke-width="1.5"/>
</g>
</svg>
